<svg width="22" height="22" viewBox="0 0 22 22" fill="none" xmlns="http://www.w3.org/2000/svg">
<path fill-rule="evenodd" clip-rule="evenodd" d="M15.8889 0C17.5097 0 19.064 0.643847 20.2101 1.7899C21.3562 2.93596 22 4.49034 22 6.11111V15.8889C22 17.5097 21.3562 19.064 20.2101 20.2101C19.064 21.3562 17.5097 22 15.8889 22H6.11111C4.49034 22 2.93596 21.3562 1.7899 20.2101C0.643847 19.064 0 17.5097 0 15.8889V6.11111C0 4.49034 0.643847 2.93596 1.7899 1.7899C2.93596 0.643847 4.49034 0 6.11111 0H15.8889ZM15.8889 2.44444H6.11111C5.13865 2.44444 4.20602 2.83075 3.51839 3.51839C2.83075 4.20602 2.44444 5.13865 2.44444 6.11111V15.8889C2.44444 16.8613 2.83075 17.794 3.51839 18.4816C4.20602 19.1692 5.13865 19.5556 6.11111 19.5556H15.8889C16.8613 19.5556 17.794 19.1692 18.4816 18.4816C19.1692 17.794 19.5556 16.8613 19.5556 15.8889V6.11111C19.5556 5.13865 19.1692 4.20602 18.4816 3.51839C17.794 2.83075 16.8613 2.44444 15.8889 2.44444ZM11 6.11111C12.2966 6.11111 13.5401 6.62619 14.457 7.54303C15.3738 8.45988 15.8889 9.70339 15.8889 11C15.8889 12.2966 15.3738 13.5401 14.457 14.457C13.5401 15.3738 12.2966 15.8889 11 15.8889C9.70339 15.8889 8.45988 15.3738 7.54303 14.457C6.62619 13.5401 6.11111 12.2966 6.11111 11C6.11111 9.70339 6.62619 8.45988 7.54303 7.54303C8.45988 6.62619 9.70339 6.11111 11 6.11111ZM11 8.55556C10.3517 8.55556 9.72994 8.8131 9.27152 9.27152C8.8131 9.72994 8.55556 10.3517 8.55556 11C8.55556 11.6483 8.8131 12.2701 9.27152 12.7285C9.72994 13.1869 10.3517 13.4444 11 13.4444C11.6483 13.4444 12.2701 13.1869 12.7285 12.7285C13.1869 12.2701 13.4444 11.6483 13.4444 11C13.4444 10.3517 13.1869 9.72994 12.7285 9.27152C12.2701 8.8131 11.6483 8.55556 11 8.55556ZM16.5 4.27778C16.8242 4.27778 17.135 4.40655 17.3642 4.63576C17.5935 4.86497 17.7222 5.17585 17.7222 5.5C17.7222 5.82415 17.5935 6.13503 17.3642 6.36424C17.135 6.59345 16.8242 6.72222 16.5 6.72222C16.1758 6.72222 15.865 6.59345 15.6358 6.36424C15.4065 6.13503 15.2778 5.82415 15.2778 5.5C15.2778 5.17585 15.4065 4.86497 15.6358 4.63576C15.865 4.40655 16.1758 4.27778 16.5 4.27778Z" fill="white" fill-opacity="0.86"/>
</svg>
