<svg width="33" height="33" viewBox="0 0 33 33" fill="none" xmlns="http://www.w3.org/2000/svg">
<g clip-path="url(#clip0_25_194)">
<path d="M23.1084 6.38736L23.4251 2.07617L20.2767 5.00298L21.0675 7.0163L23.1084 6.38736Z" fill="white"/>
<path d="M17.8269 24.7113C22.3609 23.9764 25.4406 19.705 24.7056 15.171C23.9706 10.637 19.6992 7.55724 15.1652 8.29223C10.6313 9.02722 7.55158 13.2986 8.28658 17.8326C9.02158 22.3666 13.2929 25.4463 17.8269 24.7113Z" fill="white"/>
<path d="M11.9332 7.01665L12.7189 5.01621L9.55798 2.08496L9.87898 6.38365L11.9332 7.01665Z" fill="white"/>
<path d="M18.8959 6.59894L16.5004 0.5L14.1048 6.59894C14.8734 6.41294 15.6754 6.31369 16.5004 6.31369C17.3253 6.31369 18.1274 6.41294 18.8959 6.59894Z" fill="white"/>
<path d="M32.0992 20.0607L26.685 16.3672C26.6856 16.4116 26.6867 16.4559 26.6867 16.5004C26.6867 18.1304 26.3012 19.6719 25.6176 21.0395L32.0992 20.0607Z" fill="white"/>
<path d="M25.7339 12.2019L29.0097 6.52441L22.7419 8.45585C24.0134 9.4446 25.0449 10.7277 25.7339 12.2019Z" fill="white"/>
<path d="M26.7627 14.1578L28.5288 15.3626L32.0957 12.9239L27.8426 12.2861L26.7627 14.1578Z" fill="white"/>
<path d="M14.9294 28.4832L16.5101 32.5001L18.0814 28.4926L16.5004 27.0264L14.9294 28.4832Z" fill="white"/>
<path d="M9.55817 30.9156L14.3628 26.46C12.7503 26.1143 11.2781 25.3862 10.0465 24.375L9.55817 30.9156Z" fill="white"/>
<path d="M18.6379 26.46L23.4425 30.9156L22.9543 24.375C21.7226 25.3862 20.2504 26.1142 18.6379 26.46Z" fill="white"/>
<path d="M24.7301 23.0625L24.8894 25.1968L29.0178 26.4652L26.8645 22.7402L24.7301 23.0625Z" fill="white"/>
<path d="M10.2589 8.45591L3.99103 6.52441L7.26684 12.2019C7.95584 10.7278 8.9874 9.44473 10.2589 8.45591Z" fill="white"/>
<path d="M6.23807 14.1575L5.16513 12.2979L0.900757 12.9428L4.46051 15.3701L6.23807 14.1575Z" fill="white"/>
<path d="M3.99512 26.4815L8.1103 25.2115L8.27068 23.0634L6.14993 22.7432L3.99512 26.4815Z" fill="white"/>
<path d="M6.31405 16.5004C6.31405 16.4559 6.31518 16.4116 6.31574 16.3672L0.90155 20.0608L7.38324 21.0396C6.69955 19.672 6.31405 18.1305 6.31405 16.5004Z" fill="white"/>
</g>
<defs>
<clipPath id="clip0_25_194">
<rect width="32" height="32" fill="white" transform="translate(0.5 0.5)"/>
</clipPath>
</defs>
</svg>
