<svg width="230" height="707" viewBox="0 0 230 707" fill="none" xmlns="http://www.w3.org/2000/svg">
<path d="M13.8245 11.3657C38.6932 4.33545 65.2593 0.556672 90.6373 7.49907C109.649 12.6839 127.813 23.6687 138.847 40.8929C148.183 55.3928 152.087 73.2321 149.541 90.4563C146.655 110.493 135.706 127.014 122.296 141.25C93.6079 171.656 56.0927 190.813 25.792 219.286C-6.29111 249.428 -32.0085 296.619 -17.5796 342.492C-4.67847 383.531 36.1469 406.819 70.3519 426.328C99.04 442.585 128.492 457.876 155.737 476.77C181.115 494.434 208.445 517.546 216.508 549.621C226.439 589.518 199.873 627.218 169.487 648.66C130.953 675.815 83.0833 688.733 37.1654 692.863C13.485 694.972 -10.45 695.148 -34.1304 693.654C-57.9806 692.16 -81.661 690.227 -105.256 685.833C-116.29 683.724 -127.239 681.263 -138.188 678.627C-144.045 677.221 -146.506 686.712 -140.65 687.942C-116.884 692.775 -92.8646 697.081 -68.9296 700.86C-44.8248 704.639 -20.72 706.748 3.72426 706.836C52.3582 707.011 101.671 697.872 145.976 676.518C185.359 657.536 223.383 625.021 229.24 577.654C233.653 542.503 214.217 512.185 189.772 489.864C164.14 466.312 133.584 449.44 103.623 432.655C87.5817 423.691 71.3704 414.728 55.6684 405.149C37.7595 394.252 20.1053 381.949 6.69492 365.34C-7.98862 347.149 -13.6753 324.125 -9.77101 300.837C-5.78185 277.11 6.10078 256.019 21.8028 238.531C50.4909 206.544 89.2792 187.123 120.344 158.035C135.367 143.974 149.032 127.19 155.652 107.065C161.339 89.6654 161.254 70.5079 154.549 53.4595C147.674 35.9717 134.858 21.7354 118.986 12.6839C97.9366 0.820308 72.8133 -1.55241 49.3875 1.43546C37.1654 3.01727 25.1979 6.09301 13.5699 10.3112C12.806 10.4869 13.1455 11.6294 13.8245 11.3657Z" fill="#EF4B6E"/>
</svg>
