<svg width="437" height="92" viewBox="0 0 437 92" fill="none" xmlns="http://www.w3.org/2000/svg">
<path d="M339.779 77.5305C306.828 74.7177 273.526 77.0383 240.574 78.726C207.973 80.4137 175.442 83.2265 142.842 84.4923C111.573 85.6878 79.7429 85.6878 49.2452 78.1634C37.1864 75.2099 -7.54351 63.7476 10.8252 43.2138C16.5742 36.8145 25.2678 33.2281 33.1901 30.4856C41.1125 27.7431 49.2452 25.8444 57.3779 23.9457C70.5585 20.8516 83.669 17.6871 96.9898 15.5072C112.905 12.9053 128.96 11.0066 145.085 9.74084C208.604 4.67771 273.175 6.78735 336.344 15.0149C349.174 16.7026 362.074 18.32 374.834 20.6406C386.823 22.8206 399.022 25.6334 409.959 31.2591C415.077 33.861 419.914 37.0958 424.051 41.1041C428.328 45.2531 432.464 52.8478 425.944 57.067C419.844 61.005 411.782 62.2708 404.771 63.3959C397.129 64.5211 389.487 65.2946 381.845 66.2791C373.923 67.2636 366 68.2481 358.078 69.0216C352.75 69.5842 352.539 77.9525 358.078 77.5305C374.834 76.2647 391.52 73.3113 408.066 70.5687C420.335 68.5294 440.316 63.8179 436.53 47.0814C433.726 34.7049 419.424 26.8992 408.767 22.3283C396.778 17.2652 384.018 14.6633 371.188 12.6943C305.986 2.77903 240.364 -1.2996 174.461 1.79453C141.439 3.3416 108.488 6.92799 76.0972 13.6085C65.5808 15.7885 54.9942 18.2497 44.5479 20.8516C35.0831 23.2425 25.5482 26.0554 16.9247 30.6263C9.63334 34.4939 2.0615 40.4009 0.378874 48.9801C-1.86463 60.3018 6.19797 68.67 15.5225 73.5925C28.0722 80.2027 42.5848 83.8595 56.3964 86.5317C72.3814 89.6258 88.6468 91.1728 104.982 91.5948C139.687 92.5793 174.321 89.4148 208.885 87.2349C243.659 84.9846 278.504 83.7891 313.348 81.9608C322.252 81.4685 331.086 80.906 339.919 80.1324C341.462 79.9918 341.462 77.6712 339.779 77.5305Z" fill="#EF4B6E"/>
</svg>
