<svg width="28" height="28" viewBox="0 0 28 28" fill="none" xmlns="http://www.w3.org/2000/svg">
<path d="M18.6825 15.7443L17.531 8.59386L10.3746 9.70829C10.2985 9.71 10.2237 9.72805 10.1551 9.76121C10.0866 9.79438 10.0259 9.84188 9.97736 9.90051C9.92877 9.95914 9.89335 10.0275 9.87348 10.101C9.85362 10.1745 9.84978 10.2515 9.86223 10.3266C9.87468 10.4017 9.90312 10.4733 9.94564 10.5364C9.98815 10.5996 10.0437 10.6529 10.1086 10.6927C10.1735 10.7326 10.2462 10.758 10.3218 10.7672C10.3974 10.7765 10.4741 10.7695 10.5467 10.7465L15.9106 9.91979L9.93396 18.146C9.8511 18.26 9.81694 18.4023 9.83899 18.5416C9.86105 18.6808 9.93751 18.8056 10.0516 18.8884C10.1656 18.9713 10.3079 19.0054 10.4471 18.9834C10.5864 18.9613 10.7111 18.8849 10.794 18.7708L16.7707 10.5446L17.6419 15.9015C17.6645 16.0408 17.7414 16.1653 17.8559 16.2478C17.9703 16.3303 18.1127 16.364 18.252 16.3415C18.3912 16.3189 18.5158 16.242 18.5983 16.1276C18.6808 16.0132 18.7145 15.8707 18.6919 15.7314L18.6825 15.7443Z" fill="black"/>
</svg>
