<svg width="266" height="527" viewBox="0 0 266 527" fill="none" xmlns="http://www.w3.org/2000/svg">
<path d="M38.0722 385.117C26.1722 396.844 16.8722 410.336 10.1722 425.903C3.47219 441.366 -1.32781 457.245 1.17219 474.265C6.17219 508.512 38.3722 529.684 70.5722 526.674C104.072 523.457 132.172 500.002 151.572 472.812C169.772 447.282 180.472 415.94 181.272 384.183C182.272 348.898 169.872 317.141 150.772 288.497C140.572 273.138 128.972 258.608 119.872 242.522C111.872 228.408 106.172 212.945 103.072 196.755C97.1722 165.205 102.572 131.892 117.272 103.767C131.872 75.8502 154.972 53.6411 181.472 38.0739C231.672 8.49641 297.572 1.54309 348.372 33.4038C354.872 37.4513 360.972 41.9138 366.772 46.9991C372.372 51.9806 380.672 43.5743 374.972 38.4891C330.272 -2.19301 266.472 -8.31608 211.472 10.8834C154.772 30.7055 104.672 77.1993 92.1722 139.779C85.9722 170.913 89.4723 203.189 101.772 232.248C115.872 265.561 142.572 291.092 157.772 323.886C184.872 382.315 164.872 453.301 117.972 493.879C92.7722 515.673 53.1722 526.778 25.5722 502.908C12.1722 491.389 6.97224 474.368 6.97224 456.622C7.07224 438.772 14.2723 422.167 22.8723 407.015C27.2723 399.335 32.6722 392.278 38.4722 385.636C38.7722 385.221 38.3722 384.806 38.0722 385.117Z" fill="#EF4B6E"/>
</svg>
